<?xml version="1.0"?>
<svg xmlns="http://www.w3.org/2000/svg" xmlnsXlink="http://www.w3.org/1999/xlink" xmlnsSvgjs="http://svgjs.com/svgjs" version="1.1" width="512" height="512" x="0" y="0" viewBox="0 0 24 24" style="enable-background:new 0 0 512 512" xml:space="preserve"><g><path xmlns="http://www.w3.org/2000/svg" d="M6.5,0A3.5,3.5,0,0,0,3,3.5v17a3.5,3.5,0,0,0,7,0V3.5A3.5,3.5,0,0,0,6.5,0ZM8,20.5a1.5,1.5,0,0,1-3,0V3.5a1.5,1.5,0,0,1,3,0Z" fill="#f3f3f3" data-original="#000000"/><path xmlns="http://www.w3.org/2000/svg" d="M17.5,0A3.5,3.5,0,0,0,14,3.5v17a3.5,3.5,0,0,0,7,0V3.5A3.5,3.5,0,0,0,17.5,0ZM19,20.5a1.5,1.5,0,0,1-3,0V3.5a1.5,1.5,0,0,1,3,0Z" fill="#f3f3f3" data-original="#000000"/></g></svg>
